<?xml version="1.0" encoding="UTF-8" standalone="no"?>
<!-- Uploaded to: SVG Repo, www.svgrepo.com, Transformed by: SVG Repo Mixer Tools -->

<svg
   fill="#000000"
   width="800px"
   height="800px"
   viewBox="0 0 32.00 32.00"
   version="1.1"
   transform="matrix(1, 0, 0, 1, 0, 0)"
   id="svg1"
   sodipodi:docname="diamond.svg"
   inkscape:version="1.3 (1:1.3+202307231459+0e150ed6c4)"
   inkscape:export-filename="diamond.png"
   inkscape:export-xdpi="7.6799998"
   inkscape:export-ydpi="7.6799998"
   xmlns:inkscape="http://www.inkscape.org/namespaces/inkscape"
   xmlns:sodipodi="http://sodipodi.sourceforge.net/DTD/sodipodi-0.dtd"
   xmlns="http://www.w3.org/2000/svg"
   xmlns:svg="http://www.w3.org/2000/svg">
  <defs
     id="defs1" />
  <sodipodi:namedview
     id="namedview1"
     pagecolor="#ffffff"
     bordercolor="#000000"
     borderopacity="0.25"
     inkscape:showpageshadow="2"
     inkscape:pageopacity="0.0"
     inkscape:pagecheckerboard="0"
     inkscape:deskcolor="#d1d1d1"
     inkscape:zoom="0.46138717"
     inkscape:cx="513.66837"
     inkscape:cy="366.28673"
     inkscape:window-width="1366"
     inkscape:window-height="719"
     inkscape:window-x="0"
     inkscape:window-y="0"
     inkscape:window-maximized="1"
     inkscape:current-layer="svg1" />
  <g
     id="SVGRepo_bgCarrier"
     stroke-width="0" />
  <g
     id="SVGRepo_tracerCarrier"
     stroke-linecap="round"
     stroke-linejoin="round"
     stroke="#CCCCCC"
     stroke-width="0.064" />
  <g
     id="SVGRepo_iconCarrier"
     style="fill:#4826c3;fill-opacity:1">
    <title
       id="title1">diamond</title>
    <path
       d="M2.103 12.052l13.398 16.629-5.373-16.629h-8.025zM11.584 12.052l4.745 16.663 4.083-16.663h-8.828zM17.051 28.681l12.898-16.629h-7.963l-4.935 16.629zM29.979 10.964l-3.867-6.612-3.869 6.612h7.736zM24.896 3.973h-7.736l3.867 6.839 3.869-6.839zM19.838 10.964l-3.867-6.612-3.868 6.612h7.735zM14.839 3.973h-7.735l3.868 6.839 3.867-6.839zM5.889 4.352l-3.867 6.612h7.735l-3.868-6.612z"
       id="path1"
       style="fill:#4826c3;fill-opacity:1" />
  </g>
</svg>
